Coordinates
version=1
nRows=11
nColumns=40
inDegrees=yes

Units are S.I. units (second, meters, Newtons, ...)
Angles are in degrees.

endheader
time	pelvis_tilt	pelvis_list	pelvis_rotation	pelvis_tx	pelvis_ty	pelvis_tz	hip_flexion_r	hip_adduction_r	hip_rotation_r	knee_angle_r	knee_angle_r_beta	ankle_angle_r	subtalar_angle_r	mtp_angle_r	hip_flexion_l	hip_adduction_l	hip_rotation_l	knee_angle_l	knee_angle_l_beta	ankle_angle_l	subtalar_angle_l	mtp_angle_l	lumbar_extension	lumbar_bending	lumbar_rotation	arm_flex_r	arm_add_r	arm_rot_r	elbow_flex_r	pro_sup_r	wrist_flex_r	wrist_dev_r	arm_flex_l	arm_add_l	arm_rot_l	elbow_flex_l	pro_sup_l	wrist_flex_l	wrist_dev_l
     39.31250000	     -6.36031719	     -5.89503520	      2.48633306	      1.03415423	      0.92789115	      0.50500990	     12.88502290	      3.98364771	    -17.00532892	     15.79493923	     15.79493923	     10.50010635	      0.73766939	     -3.37298841	     39.25776671	    -12.65379252	      4.21981504	     54.75493726	     54.75493726	     10.70348514	    -18.13789956	     12.94299231	    -13.75583582	      6.20459952	      4.72800815	     24.82993327	    -19.14518939	      1.11523954	     43.27943556	     45.52009000	      0.00000000	      0.00000000	      3.24297228	     -7.79026470	     -6.54304950	     32.58487736	     47.36723650	      0.00000000	      0.00000000
     39.32357143	     -6.47688397	     -5.94901854	      2.75558628	      1.03332066	      0.92711817	      0.50453269	     12.43222747	      4.06110927	    -17.04921976	     15.64666218	     15.64666218	     10.99696344	      0.60382335	     -3.52435293	     39.93016482	    -12.38938669	      4.49604348	     51.87671295	     51.87671295	     10.52003310	    -17.66529968	     13.32086075	    -13.62684210	      6.17142355	      5.15468954	     26.57088469	    -19.88456612	      0.87755732	     44.09591144	     45.51285861	      0.00000000	      0.00000000	      1.96231790	     -7.96536704	     -6.65372673	     31.92367881	     47.35803599	      0.00000000	      0.00000000
     39.33464286	     -6.40354444	     -5.86101963	      3.05718547	      1.03278078	      0.92676232	      0.50386134	     11.55186364	      4.06943638	    -16.92853880	     15.10762296	     15.10762296	     11.43660657	      0.44569865	     -3.59241078	     40.09729245	    -11.90031588	      4.76431756	     48.63404719	     48.63404719	     10.18155632	    -17.43443264	     13.49212906	    -13.74981310	      6.04136185	      4.39828728	     28.69441932	    -19.50043856	      0.87527230	     46.20955208	     45.44774525	      0.00000000	      0.00000000	      0.41194551	     -8.41739306	     -6.89628764	     30.37861262	     47.35521489	      0.00000000	      0.00000000
     39.34571429	     -6.45217664	     -5.98379288	      3.33774202	      1.03223720	      0.92597043	      0.50321504	     10.89707780	      4.26554985	    -16.92160474	     14.72960039	     14.72960039	     11.82720137	      0.28066516	     -3.79053881	     40.38158474	    -11.66282209	      5.04870226	     45.38069974	     45.38069974	      9.83815652	    -16.75293557	     13.18568197	    -13.69384833	      6.12793368	      4.11776977	     30.45374181	    -19.69832193	      1.05925937	     48.44611101	     45.36929521	      0.00000000	      0.00000000	     -0.85701093	     -8.62799965	     -7.28649408	     28.86686590	     47.37622217	      0.00000000	      0.00000000
     39.35678571	     -6.61903160	     -6.17095514	      3.57351904	      1.03168298	      0.92485390	      0.50249824	     10.51031142	      4.46258371	    -16.98057825	     14.62389459	     14.62389459	     12.30940772	      0.18243717	     -3.99018403	     40.74297517	    -11.50287463	      5.26869122	     42.17073282	     42.17073282	      9.78515186	    -15.76066218	     13.45376222	    -13.42234229	      6.28418410	      4.59084307	     32.06355584	    -20.36366993	      0.88854121	     49.37116211	     45.35332528	      0.00000000	      0.00000000	     -1.96723831	     -8.78531137	     -7.40136087	     28.25458849	     47.37263345	      0.00000000	      0.00000000
     39.36785714	     -6.51403542	     -6.18565102	      3.84893964	      1.03159602	      0.92437632	      0.50161970	      9.50886657	      4.58914738	    -16.92053238	     13.95493520	     13.95493520	     12.62127174	      0.18230366	     -4.12752149	     40.48591784	    -11.21992712	      5.23385842	     38.69284512	     38.69284512	      9.52089909	    -14.64735933	     12.98153302	    -13.58762528	      6.24810114	      3.85950816	     33.70024288	    -20.02973703	      1.18190932	     52.58035828	     45.23583941	      0.00000000	      0.00000000	     -3.32919173	     -9.03229013	     -7.69531342	     26.75637055	     47.38494844	      0.00000000	      0.00000000
     39.37892857	     -6.53040454	     -6.26013940	      4.05557192	      1.03160054	      0.92364064	      0.50072129	      8.75827130	      4.72027604	    -16.92699582	     13.54146894	     13.54146894	     12.97580001	      0.21280991	     -4.32437823	     40.31334344	    -11.04218451	      5.03478602	     35.35042045	     35.35042045	      9.28329135	    -13.33658156	     12.76231383	    -13.45300238	      6.25214389	      3.87652626	     34.98420114	    -20.27485084	      1.31551606	     54.98573548	     45.15447571	      0.00000000	      0.00000000	     -4.46363984	     -9.23551856	     -7.95038609	     25.86279552	     47.39845877	      0.00000000	      0.00000000
     39.39000000	     -6.55573801	     -6.49913145	      4.32299030	      1.03180473	      0.92270312	      0.49961116	      7.96153561	      5.02530704	    -17.07254019	     13.00128081	     13.00128081	     13.18059973	      0.35390113	     -4.80602635	     40.12870126	    -10.97140648	      4.86065625	     32.15709197	     32.15709197	      8.54408677	    -12.06191588	     11.04367864	    -13.40390182	      6.50969852	      4.46357557	     35.00441688	    -21.59162080	      1.77835518	     60.51553991	     44.96288754	      0.00000000	      0.00000000	     -5.09320182	     -9.21339570	     -8.74101649	     24.95163631	     47.47630651	      0.00000000	      0.00000000
     39.40107143	     -6.69577277	     -6.82615260	      4.52819621	      1.03205513	      0.92143317	      0.49842663	      7.49922360	      5.34941585	    -17.12999719	     12.88770329	     12.88770329	     13.60646670	      0.36676430	     -4.97058319	     40.18152841	    -10.90802141	      4.84403952	     29.53025829	     29.53025829	      8.55419322	    -11.01087711	     11.42839270	    -13.00392913	      6.84191681	      4.78315638	     36.55007686	    -22.03311734	      1.46061965	     61.35098337	     44.95517675	      0.00000000	      0.00000000	     -6.15786431	     -9.38654000	     -8.80788174	     24.48360293	     47.46684690	      0.00000000	      0.00000000
     39.41214286	     -6.51783175	     -6.67508561	      4.77958339	      1.03285454	      0.92127734	      0.49701047	      6.24461758	      5.29554421	    -17.23322630	     12.02634855	     12.02634855	     13.85281815	      0.70387684	     -4.91392234	     39.39877634	    -10.55407472	      3.94033098	     26.62225856	     26.62225856	      8.39416743	     -9.48335585	     11.86280308	    -13.07832971	      6.59146815	      4.03475713	     37.90356197	    -21.08913579	      1.31760081	     63.93202134	     44.88272204	      0.00000000	      0.00000000	     -7.41872130	     -9.48368663	     -8.84825571	     23.85314058	     47.44169790	      0.00000000	      0.00000000
     39.42321429	     -6.46854458	     -6.83477611	      5.02580983	      1.03379235	      0.92050582	      0.49548242	      5.19847936	      5.53253410	    -17.43596035	     11.28583240	     11.28583240	     14.11532585	      1.19615278	     -4.91894785	     39.00659471	    -10.41394433	      3.27267148	     24.46429958	     24.46429958	      8.34554652	     -8.25709258	     12.11801394	    -12.96863514	      6.76575851	      3.63638512	     39.03265129	    -20.64461492	      1.04970976	     66.77504681	     44.80783783	      0.00000000	      0.00000000	     -8.73764986	     -9.54660263	     -8.93127443	     23.56931703	     47.41680135	      0.00000000	      0.00000000
